<svg version="1.2" xmlns="http://www.w3.org/2000/svg" viewBox="0 0 501 197" width="501" height="197">
	<title>Place Your Logo Here (Double Click to Edit)121</title>
	<style>
		tspan { white-space:pre } 
		.t0 { font-size: 42px;fill: #32455f;font-weight: 400;font-family: "OpenSans", "Open Sans" } 
		.t1 { font-size: 42px;fill: #32455f;font-weight: 700;font-family: "OpenSans-Bold", "Open Sans" } 
		.s2 { fill: #32455f } 
	</style>
	<text id="Logo" style="transform: matrix(1,0,0,1,202.303,113.308)" >
		<tspan x="8.8" y="31.7" class="t0">H</tspan><tspan  y="31.7" class="t0">i</tspan><tspan  y="31.7" class="t0">k</tspan><tspan  y="31.7" class="t0">i</tspan><tspan  y="31.7" class="t0">n</tspan><tspan  y="31.7" class="t0">g</tspan><tspan  y="31.7" class="t0"> </tspan><tspan  y="31.7" class="t1">L</tspan><tspan  y="31.7" class="t1">i</tspan><tspan  y="31.7" class="t1">f</tspan><tspan  y="31.7" class="t1">e</tspan><tspan  y="31.7" class="t1">
</tspan>
	</text>
	<path id="Shape" fill-rule="evenodd" class="s2" d="m161.4 139.2c-0.6 1.1-1.7 1.8-3 1.8h-90.8c-1.3 0-2.4-0.7-3-1.8-0.6-1.1-0.5-2.5 0.2-3.5l13-19.1c0.5-0.6 1.4-0.8 2-0.4 0.7 0.5 0.8 1.4 0.4 2l-13 19.1c-0.2 0.2-0.1 0.4-0.1 0.5 0.1 0.1 0.2 0.3 0.5 0.3h65.9c0.3 0 0.4-0.2 0.5-0.3 0-0.1 0.1-0.3-0.1-0.5l-6.5-9.6c-0.5-0.7-0.3-1.5 0.4-2 0.6-0.4 1.5-0.3 1.9 0.4l6.6 9.6c0.5 0.7 0.7 1.6 0.5 2.4h21.6c0.3 0 0.4-0.2 0.5-0.3 0-0.1 0.1-0.3-0.1-0.5l-8.7-12.8c-0.5-0.7-0.3-1.6 0.3-2 0.7-0.5 1.6-0.3 2 0.3l8.8 12.9c0.7 1 0.8 2.4 0.2 3.5zm-60.9-53.2c1.2 0 2.2 0.6 2.9 1.5l17.2 25.2 3.1-4.6q0 0 0 0l6.6-9.5c0.6-0.9 1.6-1.5 2.8-1.5 1.1 0 2.1 0.6 2.8 1.5l11.2 16.5q0 0 0 0l1.6 2.2c0.4 0.7 0.2 1.5-0.4 2q-0.4 0.2-0.8 0.2c-0.5 0-0.9-0.2-1.2-0.6l-1.1-1.5c-3.6-0.1-5.6-1.3-6.8-2.3q-0.7-0.6-1.3-1.1c-1.2-1.2-1.7-1.6-3.1-1.1-4.5 1.4-7.3 0.1-9-1.5l-2.7 3.9 3.7 5.3c0.4 0.6 0.2 1.5-0.4 1.9q-0.4 0.3-0.8 0.3c-0.5 0-0.9-0.2-1.2-0.6l-7.7-11.3c-1.4 1-2.7 1.4-3.9 1.4-2.5 0-4.6-1.6-6.5-3-2.7-2-5-3.8-8.4-2.3-4.4 2.1-7.5 1.5-9.5 0.4l-3.6 5.3c-0.5 0.6-1.4 0.8-2 0.4-0.7-0.5-0.8-1.4-0.4-2l16.1-23.6c0.7-0.9 1.7-1.5 2.8-1.5zm26.2 22.9c1.4 1.8 3.5 2.2 6.4 1.2 3.1-1 4.6 0.5 6 1.8q0.5 0.5 1.1 1c0.7 0.5 1.6 1.1 2.9 1.4l-9.6-14.1c-0.1-0.2-0.3-0.2-0.4-0.2-0.1 0-0.3 0-0.5 0.2zm-26.6-19.8l-10.8 15.9q2.5 1.3 6.7-0.6c4.9-2.2 8.4 0.4 11.3 2.6 2.9 2.2 4.6 3.3 7.1 1.6l-13.4-19.5c-0.1-0.2-0.3-0.2-0.4-0.2-0.1 0-0.3 0-0.5 0.2z"/>
</svg>